<?xml version="1.0" standalone="no"?>
<!DOCTYPE svg PUBLIC "-//W3C//DTD SVG 20010904//EN"
 "http://www.w3.org/TR/2001/REC-SVG-20010904/DTD/svg10.dtd">
<svg version="1.0" xmlns="http://www.w3.org/2000/svg"
 width="32.000000pt" height="32.000000pt" viewBox="0 0 32.000000 32.000000"
 preserveAspectRatio="xMidYMid meet">

<g transform="translate(0.000000,32.000000) scale(0.100000,-0.100000)"
fill="#000000" stroke="none">
<path d="M60 245 c0 -59 1 -60 56 -116 35 -35 54 -62 49 -69 -5 -8 -23 4 -56
36 -29 28 -49 42 -49 33 0 -8 23 -37 50 -64 l50 -49 27 27 28 27 -68 68 c-58
59 -84 102 -60 102 4 0 43 -35 85 -77 43 -43 78 -71 78 -63 0 8 -17 31 -37 52
l-37 38 24 25 c31 33 40 32 40 -4 0 -17 5 -33 10 -36 6 -4 10 19 10 62 l0 67
-50 -49 -50 -49 -50 49 -50 49 0 -59z"/>
</g>
</svg>
