<?xml version="1.0" standalone="no"?>
<!DOCTYPE svg PUBLIC "-//W3C//DTD SVG 20010904//EN"
 "http://www.w3.org/TR/2001/REC-SVG-20010904/DTD/svg10.dtd">
<svg version="1.0" xmlns="http://www.w3.org/2000/svg"
 width="500.000000pt" height="500.000000pt" viewBox="0 0 500.000000 500.000000"
 preserveAspectRatio="xMidYMid meet">

<g transform="translate(0.000000,500.000000) scale(0.100000,-0.100000)"
fill="#000000" stroke="none">
<path d="M870 3900 l0 -905 940 -940 c517 -517 940 -945 940 -950 0 -6 -65
-75 -145 -155 l-145 -145 -795 795 -795 795 0 -290 0 -290 810 -810 810 -810
440 440 440 440 -1050 1050 -1050 1050 0 333 c0 182 3 332 7 332 5 0 565 -557
1245 -1237 l1238 -1238 137 137 138 138 -625 625 c-344 344 -627 630 -629 636
-3 11 917 939 931 939 5 0 8 -215 8 -478 l0 -477 205 -205 205 -205 0 1163 c0
639 -3 1162 -8 1162 -4 0 -372 -365 -817 -810 l-810 -810 -812 812 -813 813 0
-905z"/>
</g>
</svg>
